<?xml version="1.0" standalone="no"?>
<!DOCTYPE svg PUBLIC "-//W3C//DTD SVG 20010904//EN"
 "http://www.w3.org/TR/2001/REC-SVG-20010904/DTD/svg10.dtd">
<svg version="1.0" xmlns="http://www.w3.org/2000/svg"
 width="552.000000pt" height="552.000000pt" viewBox="0 0 552.000000 552.000000"
 preserveAspectRatio="xMidYMid meet">
<metadata>
Created by potrace 1.14, written by Peter Selinger 2001-2017
</metadata>
<g transform="translate(0.000000,552.000000) scale(0.100000,-0.100000)"
fill="#000000" stroke="none">
<path d="M3098 5235 c-2 -1 -25 -5 -53 -8 -193 -21 -401 -188 -509 -408 -34
-68 -82 -223 -91 -294 -3 -22 -9 -60 -12 -85 -4 -25 -7 -151 -7 -281 0 -250 0
-250 -44 -216 -7 5 -49 11 -94 12 -98 3 -153 -14 -348 -108 -172 -84 -230 -96
-465 -98 -210 -2 -272 -12 -390 -68 -188 -88 -289 -204 -395 -451 -76 -176
-122 -249 -219 -343 -169 -166 -203 -204 -258 -285 -96 -143 -165 -331 -193
-526 -19 -127 -16 -380 6 -481 2 -11 6 -31 8 -45 52 -315 206 -597 400 -734
107 -76 165 -97 400 -146 106 -22 217 -48 247 -59 29 -10 146 -65 259 -123
183 -93 266 -126 365 -144 17 -3 48 -9 70 -13 22 -4 92 -6 155 -5 129 3 249
28 415 87 239 85 280 85 492 -6 80 -35 216 -81 270 -92 135 -27 215 -37 313
-38 109 -2 263 8 292 18 7 2 29 6 48 9 54 9 78 14 180 41 52 14 172 43 265 65
333 79 499 128 658 196 284 122 460 372 562 797 18 78 39 178 45 222 7 44 14
89 16 100 2 11 7 51 10 89 3 38 8 79 10 90 5 26 5 280 -1 321 -2 17 -6 53 -10
81 -7 62 -44 198 -74 272 -88 220 -277 451 -495 606 -93 67 -192 125 -446 261
-149 79 -232 132 -425 270 -183 130 -311 178 -474 177 -106 -1 -165 -9 -261
-34 -41 -10 -82 -21 -90 -23 -13 -3 -135 -47 -243 -87 -15 -6 -30 -8 -33 -6
-13 13 -55 155 -67 229 -15 82 -16 288 -2 354 54 262 157 447 296 533 97 59
218 16 259 -93 16 -41 21 -163 9 -216 -18 -80 -73 -111 -129 -72 -35 24 -47
40 -77 103 -21 44 -26 71 -27 132 -1 43 -2 78 -4 78 -3 0 -22 -49 -29 -75 -36
-143 -20 -293 44 -419 36 -70 115 -150 179 -180 137 -65 278 -8 351 143 96
195 -35 599 -261 812 -66 62 -80 72 -146 105 -60 30 -99 43 -155 50 -22 3 -52
7 -67 9 -15 1 -28 2 -30 0z m222 -188 c185 -54 336 -265 346 -480 4 -89 -13
-147 -54 -190 -66 -70 -172 -83 -234 -29 -18 15 -25 38 -10 28 18 -11 79 15
110 47 67 69 73 175 21 323 -38 107 -129 206 -204 220 -132 25 -251 -12 -348
-111 -127 -129 -190 -368 -191 -725 0 -182 2 -202 27 -294 15 -54 44 -130 65
-170 41 -79 131 -177 206 -224 89 -57 223 -89 301 -72 l30 7 -30 8 c-87 23
-198 90 -274 165 -39 39 -49 55 -40 60 22 12 193 45 294 57 216 25 403 -10
544 -101 111 -72 113 -66 -40 -138 -74 -35 -168 -80 -209 -100 l-75 -38 135 2
c74 1 153 5 175 9 61 11 192 23 265 24 234 2 499 -95 695 -255 44 -36 195
-192 195 -201 0 -4 6 -14 14 -22 24 -23 81 -118 125 -205 53 -106 104 -258
130 -387 19 -99 37 -244 28 -235 -3 3 -26 37 -52 75 -105 156 -295 365 -435
481 -193 159 -422 295 -642 380 -96 37 -142 42 -176 18 -25 -17 -29 -34 -9
-34 8 0 83 -35 168 -78 256 -130 414 -246 619 -452 176 -177 298 -342 413
-560 102 -194 122 -317 83 -499 -37 -169 -166 -346 -335 -459 -116 -78 -287
-148 -411 -168 -19 -3 -39 -8 -44 -11 -9 -6 -5 32 19 160 62 338 58 597 -11
811 -59 183 -185 379 -433 676 -188 225 -434 478 -519 534 -73 48 -169 73
-215 57 -15 -6 0 -24 84 -101 398 -368 655 -695 813 -1035 105 -225 168 -468
167 -640 -2 -225 -141 -398 -402 -500 -123 -48 -355 -103 -514 -122 -482 -55
-795 189 -780 610 5 146 17 201 105 477 63 198 73 234 72 237 0 2 4 17 9 35 5
18 12 48 15 67 3 18 8 43 10 55 40 185 15 541 -46 685 -46 106 -152 162 -241
126 -14 -5 -12 -16 17 -83 32 -75 79 -232 89 -302 3 -19 8 -98 11 -175 5 -128
-5 -246 -30 -350 -12 -52 -68 -230 -87 -277 -11 -29 -36 -102 -55 -163 -56
-178 -68 -243 -64 -365 7 -247 5 -304 -16 -350 -46 -100 -157 -164 -324 -186
-131 -18 -176 -21 -260 -19 -234 7 -453 103 -580 256 -98 118 -143 249 -157
459 -11 163 -6 378 12 475 78 419 256 689 765 1164 l55 51 -80 -35 c-113 -50
-211 -108 -307 -180 -423 -318 -656 -808 -643 -1350 2 -77 6 -149 8 -160 2
-11 8 -42 11 -68 10 -68 48 -188 90 -286 20 -46 34 -86 32 -89 -6 -6 -260 63
-351 95 -151 54 -282 139 -365 239 -76 90 -146 263 -175 429 -2 17 -7 39 -9
51 -10 49 -17 124 -18 194 0 74 10 198 18 211 2 4 6 24 10 44 3 21 17 72 31
114 129 392 454 717 878 876 64 24 215 71 260 81 134 28 283 49 390 54 29 1
29 1 -10 15 -99 35 -170 45 -295 41 -69 -2 -138 -7 -155 -10 -138 -29 -280
-75 -442 -141 -115 -48 -116 -47 -86 40 35 96 274 305 468 407 135 71 285 95
400 64 69 -18 95 -33 217 -124 59 -44 124 -86 144 -92 40 -14 110 -17 121 -6
4 3 -24 34 -62 69 -188 171 -182 164 -160 181 57 43 312 124 438 139 l38 5 -6
-42 c-10 -58 -71 -245 -106 -324 -46 -101 -84 -132 -169 -137 -33 -1 -117 29
-157 56 -52 36 -58 36 -36 2 115 -184 360 -325 628 -362 107 -14 324 -6 460
18 207 36 487 111 520 139 46 38 38 80 -11 62 -39 -15 -219 -59 -268 -65 -21
-3 -42 -7 -45 -10 -16 -10 -191 -20 -341 -20 -173 0 -241 5 -379 30 -69 12
-271 62 -278 69 -1 1 33 38 76 83 88 91 149 185 185 289 43 121 52 209 50 470
-2 306 12 412 71 571 123 326 440 514 725 430z"/>
</g>
</svg>
